<svg xmlns="http://www.w3.org/2000/svg" xmlns:xlink="http://www.w3.org/1999/xlink" data="logoboxwidth:376,logoboxheight:200" style="background:#ffffff;" width="400" height="400" viewBox="0 0 400 400">
<g data-name="icon" fill="#47484d" data="id:6719611,original_width:106.44977777778,original_height:106.44977777778,imagick_width_starter:96,imagick_fullwidth_starter:98,imagick_height_starter:96,imagick_fullheight_starter:98,imagick_heightgap_starter:2,imagick_widthgap_starter:2,scale_icon:1.0508877281297977" width="96" height="96" transform="translate(9.898224543740405,147.45561359351012) scale(1.0508877281297977)">
              
 <g>
  <path d="m3.4102 11.121h6.2266c0.41016 0 0.78906-0.22656 0.96875-0.60547 0.36328-0.71094 1.0742-1.168 1.8633-1.168 0.60547 0 1.0898-0.48438 1.0898-1.0898 0-1.9258 1.5742-3.5 3.5-3.5 1.5898 0 3 1.0742 3.3945 2.6055 0.089844 0.37891 0.39453 0.68359 0.77344 0.78906 0.37891 0.10547 0.78906-0.015625 1.0625-0.28906 0.34766-0.36328 0.83203-0.5625 1.3477-0.5625 1.0312 0 1.8789 0.84766 1.8789 1.8789 0 0.16797-0.03125 0.34766-0.089844 0.54687-0.089843 0.33203-0.03125 0.68359 0.16797 0.95313 0.21094 0.27344 0.53125 0.4375 0.87891 0.4375h7.4375c0.60547 0 1.0898-0.48438 1.0898-1.0898 0-0.60156-0.46875-1.0898-1.0742-1.0898h-6.2266c-0.12109-2.1367-1.8945-3.8164-4.0625-3.8164-0.5625 0-1.1211 0.12109-1.6211 0.33203-0.98438-1.7422-2.8633-2.8789-4.9531-2.8789-2.8047 0-5.1367 2.0469-5.6055 4.7109-0.97266 0.24609-1.8359 0.82031-2.4258 1.6523h-5.6211c-0.60547 0-1.0898 0.48438-1.0898 1.0898-0.003906 0.60938 0.48438 1.0938 1.0898 1.0938z"></path>
  <path d="m39.379 18.637h5.7266c0.41016 0 0.78906-0.22656 0.96875-0.60547 0.31641-0.63672 0.9375-1.0156 1.6367-1.0156 0.60547 0 1.0898-0.48438 1.0898-1.0898 0-1.7266 1.4102-3.1367 3.1367-3.1367 1.4258 0 2.6836 0.95313 3.0312 2.332 0.089844 0.37891 0.39453 0.68359 0.77344 0.77344 0.37891 0.10547 0.78906-0.015625 1.0625-0.28906 0.30469-0.31641 0.72656-0.48438 1.168-0.48438 0.91016 0 1.6367 0.74219 1.6367 1.6367 0 0.15234-0.03125 0.30469-0.074219 0.48438-0.089844 0.33203-0.03125 0.68359 0.18359 0.95312 0.21094 0.27344 0.53125 0.4375 0.87891 0.4375h6.8477c0.60547 0 1.0898-0.48437 1.0898-1.0898s-0.48438-1.0898-1.0898-1.0898h-5.6523c-0.15234-1.9688-1.8047-3.5156-3.8047-3.5156-0.5 0-1 0.10547-1.4531 0.28906-0.96094-1.5898-2.6875-2.6211-4.6094-2.6211-2.6055 0-4.7734 1.8789-5.2266 4.3477-0.87891 0.22656-1.6523 0.75781-2.2109 1.5h-5.1211c-0.60547 0-1.0898 0.48438-1.0898 1.0898-0.003906 0.60938 0.49609 1.0938 1.1016 1.0938z"></path>
  <path d="m84.211 22.984c4.2266 0 7.6523-3.4375 7.6523-7.6523 0-4.2109-3.4375-7.6523-7.6523-7.6523-4.2109 0-7.6523 3.4375-7.6523 7.6523 0.003906 4.2148 3.4414 7.6523 7.6523 7.6523zm0-13.137c3.0156 0 5.4688 2.4531 5.4688 5.4688s-2.4531 5.4688-5.4688 5.4688c-3.0156 0-5.4688-2.4531-5.4688-5.4688 0-3.0117 2.4531-5.4688 5.4688-5.4688z"></path>
  <path d="m84.211 6.2266c0.60547 0 1.0898-0.48437 1.0898-1.0898l0.003907-1.4688c0-0.60547-0.48438-1.0898-1.0898-1.0898-0.60547 0-1.0898 0.48438-1.0898 1.0898v1.4844c-0.003906 0.58984 0.49609 1.0742 1.0859 1.0742z"></path>
  <path d="m83.121 25.516v1.4844c0 0.60547 0.48438 1.0898 1.0898 1.0898 0.60547 0 1.0898-0.48438 1.0898-1.0898v-1.4844c0-0.60547-0.48438-1.0898-1.0898-1.0898-0.58984 0-1.0898 0.48438-1.0898 1.0898z"></path>
  <path d="m94.41 16.426h1.4844c0.60547 0 1.0898-0.48438 1.0898-1.0898 0-0.60938-0.5-1.0938-1.1055-1.0938h-1.4844c-0.60547 0-1.0898 0.48437-1.0898 1.0898s0.5 1.0938 1.1055 1.0938z"></path>
  <path d="m72.547 16.426h1.4844c0.60547 0 1.0898-0.48438 1.0898-1.0898 0-0.60938-0.48438-1.0938-1.0898-1.0938h-1.4844c-0.60547 0-1.0898 0.48437-1.0898 1.0898-0.003906 0.60547 0.48047 1.0938 1.0898 1.0938z"></path>
  <path d="m91.426 9.2109c0.27344 0 0.5625-0.10547 0.77344-0.31641l1.0469-1.0469c0.42578-0.42578 0.42578-1.1211 0-1.5469-0.42578-0.42578-1.1211-0.42578-1.5469 0l-1.0469 1.0469c-0.42578 0.42578-0.42578 1.1211 0 1.5469 0.21094 0.21094 0.48438 0.31641 0.77344 0.31641z"></path>
  <path d="m76.242 21.758-1.0469 1.0469c-0.42578 0.42578-0.42578 1.1211 0 1.5469 0.21094 0.21094 0.5 0.31641 0.77344 0.31641s0.5625-0.10547 0.77344-0.31641l1.0469-1.0469c0.42578-0.42578 0.42578-1.1211 0-1.5469-0.42578-0.42578-1.1211-0.42578-1.5469 0z"></path>
  <path d="m92.195 21.758c-0.42578-0.42578-1.1211-0.42578-1.5469 0-0.42578 0.42578-0.42578 1.1211 0 1.5469l1.0469 1.0469c0.21094 0.21094 0.5 0.31641 0.77344 0.31641s0.5625-0.10547 0.77344-0.31641c0.42578-0.42578 0.42578-1.1211 0-1.5469z"></path>
  <path d="m76.242 8.8945c0.21094 0.21094 0.48437 0.31641 0.77344 0.31641 0.27344 0 0.5625-0.10547 0.77344-0.31641 0.42578-0.42578 0.42578-1.1211 0-1.5469l-1.0469-1.0469c-0.42578-0.42578-1.1211-0.42578-1.5469 0-0.42578 0.42578-0.42578 1.1211 0 1.5469z"></path>
  <path d="m23.953 58.684h15.395c1.9531 0 3.5469-1.5898 3.5469-3.5469v-11.637c0-1.9531-1.5898-3.5469-3.5469-3.5469h-11.547c-1.6367 0-3.1055 1.0469-3.6523 2.5898l-3.8477 10.984c-0.41016 1.1836-0.22656 2.5 0.5 3.5156 0.74609 1.0469 1.8828 1.6406 3.1523 1.6406zm-1.5898-4.4258 3.8477-10.984c0.24219-0.66797 0.87891-1.1211 1.5898-1.1211h11.547c0.74219 0 1.3633 0.60547 1.3633 1.3633v11.637c0 0.74219-0.60547 1.3633-1.3633 1.3633h-15.395c-0.54688 0-1.0469-0.25781-1.3633-0.69531-0.31641-0.47266-0.40625-1.0312-0.22656-1.5625z"></path>
  <path d="m49.332 58.684h15.395c1.2734 0 2.4102-0.58984 3.1523-1.6211 0.72656-1.0156 0.91016-2.332 0.5-3.5312l-3.8633-10.984c-0.54688-1.5469-2-2.5898-3.6523-2.5898h-11.547c-1.9531 0-3.5469 1.5898-3.5469 3.5469v11.637c0.019531 1.9492 1.6094 3.543 3.5625 3.543zm-1.3477-15.184c0-0.74219 0.60547-1.3633 1.3633-1.3633h11.547c0.71094 0 1.3477 0.45312 1.5898 1.1211l3.8633 10.984c0.18359 0.53125 0.10547 1.0898-0.21094 1.5469-0.31641 0.45313-0.81641 0.69531-1.3633 0.69531h-15.441c-0.74219 0-1.3633-0.60547-1.3633-1.3633v-11.621z"></path>
  <path d="m52.379 61h-4.8477c-0.60547 0-1.0898 0.48438-1.0898 1.0898 0 0.60547 0.48438 1.0898 1.0898 1.0898h4.8477c0.60547 0 1.0898-0.48438 1.0898-1.0898 0-0.60547-0.48438-1.0898-1.0898-1.0898z"></path>
  <path d="m28.062 61h-4.8477c-0.60547 0-1.0898 0.48438-1.0898 1.0898 0 0.60547 0.48438 1.0898 1.0898 1.0898h4.8477c0.60547 0 1.0898-0.48438 1.0898-1.0898 0-0.60547-0.48438-1.0898-1.0898-1.0898z"></path>
  <path d="m27.727 77.453c0-2.4844-2.0312-4.5156-4.5156-4.5156-2.4844 0-4.5156 2.0312-4.5156 4.5156s2.0312 4.5156 4.5156 4.5156c2.4844 0 4.5156-2.0156 4.5156-4.5156zm-6.8633 0c0-1.2891 1.0469-2.332 2.332-2.332 1.2891 0 2.332 1.0469 2.332 2.332 0 1.2891-1.0469 2.332-2.332 2.332-1.2852 0.003906-2.332-1.043-2.332-2.332z"></path>
  <path d="m84.316 78.758h8.8164c2.5 0 4.5469-2.0312 4.5469-4.5469v-9.9375c0-1.0469-0.21094-2.1211-0.62109-3.1367-1.2734-2.9375-4.1523-4.832-7.3633-4.832h-10.031c-2.5625 0-4.832-1.6211-5.668-4.0312l-5.1211-14.574c-0.71094-2.0742-2.6836-3.4688-4.8789-3.4688h-4.0742l-1.1055-5.0312c-0.25781-1.1836-1.2891-2.0156-2.5-2.0156h-3.0898c-1.1953 0-2.2422 0.84766-2.5 2.0156l-1.1055 5.0312-24.926-0.003907c-2.1953 0-4.1523 1.3945-4.8789 3.4688l-5.1211 14.578c-0.83203 2.4102-3.1055 4.0312-5.668 4.0312h-2.1641c-2.5 0-4.5469 2.0469-4.5469 4.5469v1.0156 0.03125 0.03125 12.305c0 2.5 2.0312 4.5469 4.5469 4.5469h6.5c0.34766 2.6055 1.6836 4.8789 3.6367 6.4531l-11.105-0.007813c-1.9688 0-3.5625 1.6055-3.5625 3.5625v5.0898c0 1.9688 1.6055 3.5625 3.5625 3.5625h88.211c1.9688 0 3.5625-1.6055 3.5625-3.5625v-5.0898c0-1.9688-1.6055-3.5625-3.5625-3.5625h-13.426c1.957-1.5898 3.3047-3.8789 3.6367-6.4688zm10.941-16.031c0.13672 0.51563 0.22656 1.0312 0.22656 1.5312v1.5625h-1.3789c-0.86328 0-1.5625-0.69531-1.5625-1.5625 0-0.84766 0.69531-1.5469 1.5625-1.5469h1.1523zm-42.395-33.074c0.046875-0.16797 0.18359-0.28906 0.36328-0.28906h3.0898c0.18359 0 0.31641 0.12109 0.36328 0.28906l1 4.5625h-5.8164zm-48.348 33.316h2.3789c0.72656 0 1.3164 0.58984 1.3164 1.3164 0 0.71094-0.58984 1.3047-1.3164 1.3047h-2.3789zm0 11.242v-6.4375h2.3789c1.9258 0 3.5-1.5625 3.5-3.4844 0-1.9258-1.5742-3.5-3.5-3.5h-2.3789c0.03125-1.2734 1.0742-2.3164 2.3477-2.3164h2.168c3.4844 0 6.5898-2.2109 7.7266-5.4844l5.1211-14.59c0.41016-1.1953 1.5469-2 2.8047-2h39.289c1.2734 0 2.3945 0.80469 2.8164 2l5.1211 14.574c1.1367 3.2891 4.2422 5.5 7.7266 5.5h10.031c1.7578 0 3.3789 0.78906 4.4688 2.0742h-0.046875c-2.0625 0-3.7422 1.668-3.7422 3.7266 0 2.0625 1.6836 3.7422 3.7422 3.7422h1.3789v6.1953c0 1.3047-1.0625 2.3633-2.3633 2.3633h-8.7734c-0.45312-5.0625-4.7109-9.0469-9.8945-9.0469-5.168 0-9.4258 3.9844-9.8789 9.0469h-31.516c-0.45312-5.0625-4.7109-9.0469-9.8945-9.0469-5.168 0-9.4258 3.9844-9.8789 9.0469h-6.4062c-1.2891 0-2.3477-1.0586-2.3477-2.3633zm28.516 4.5469h31.621c0.34766 2.6055 1.6836 4.8789 3.6367 6.4531h-38.895c1.9531-1.5742 3.3008-3.8633 3.6367-6.4531zm-17.578-1.2578v-0.074219c0.015625-4.2578 3.4844-7.6953 7.7266-7.6953 4.2734 0 7.7578 3.4688 7.7578 7.7422 0 4.2578-3.4531 7.7266-7.7266 7.7578h-0.074219c-4.2109-0.046875-7.6523-3.4883-7.6836-7.7305zm78.652 9.8945c0.75781 0 1.3789 0.62109 1.3789 1.3789v5.0898c0 0.75781-0.62109 1.3789-1.3789 1.3789h-88.211c-0.75781 0-1.3789-0.62109-1.3789-1.3789v-5.0898c0-0.75781 0.62109-1.3789 1.3789-1.3789zm-19.668-2.1992c-4.2266-0.015624-7.668-3.4531-7.6953-7.6953v-0.015625-0.089844c0.03125-4.2422 3.4844-7.6953 7.7266-7.6953 4.2734 0 7.7578 3.4688 7.7578 7.7422 0 4.2578-3.4531 7.7266-7.7266 7.7578z"></path>
  <path d="m74.484 72.938c-2.4844 0-4.5156 2.0312-4.5156 4.5156s2.0312 4.5156 4.5156 4.5156 4.5156-2.0312 4.5156-4.5156-2.0312-4.5156-4.5156-4.5156zm0 6.8516c-1.2891 0-2.332-1.0469-2.332-2.332 0-1.2891 1.0469-2.332 2.332-2.332 1.2891 0 2.332 1.0469 2.332 2.332 0 1.2852-1.043 2.332-2.332 2.332z"></path>
 </g>

              </g><g data-name="business_name" fill="#f57842" data="id:245,original_width:213.49251851852,original_height:66.419894650206,imagick_width_starter:90,imagick_height_starter:28,imagick_fullwidth_starter:91,imagick_fullheight_starter:48,imagick_heightgap_starter:20,imagick_widthgap_starter:1,scale_business_name:2.834608645550438" transform="translate(130.05061325491013,103.62330605128511) scale(2.834608645550438)" width="264.90660578931" height="82.415388467786"><path d="M4.92,48l-3.72-3.72l0-20.56l3.72-3.72l8.8,0l3.72,3.72l0,5.24l-5.04,0l0-3.16l-0.76-0.76l-4.64,0l-0.76,0.76l0,16.4l0.76,0.76l4.64,0l0.76-0.76l0-5.68l-1.68,0l-0.84-0.56l0-4.48l7.56,0l0,12.8l-3.72,3.72l-8.8,0z M19.84,48l0-4.48l0.84-0.56l0-17.92l-0.84-0.56l0-4.48l14.56,0l0,5.88l-4.48,0l-0.56-0.84l-3.64,0l0,6.44l6.44,0l0,5.04l-6.44,0l0,6.44l3.64,0l0.56-0.84l4.48,0l0,5.88l-14.56,0z M40.52,48l-3.72-3.72l0-20.56l3.72-3.72l8.8,0l3.72,3.72l0,5.24l-5.04,0l0-3.16l-0.76-0.76l-4.64,0l-0.76,0.76l0,16.4l0.76,0.76l4.64,0l0.76-0.76l0-3.16l5.04,0l0,5.24l-3.72,3.72l-8.8,0z M59.16,48l-3.72-3.72l0-20.56l3.72-3.72l8.8,0l3.72,3.72l0,5.24l-5.04,0l0-3.16l-0.76-0.76l-4.64,0l-0.76,0.76l0,16.4l0.76,0.76l4.64,0l0.76-0.76l0-5.68l-1.68,0l-0.84-0.56l0-4.48l7.56,0l0,12.8l-3.72,3.72l-8.8,0z M77.8,48l-3.72-3.72l0-20.56l3.72-3.72l9.08,0l3.72,3.72l0,20.56l-3.72,3.72l-9.08,0z M79.88,42.96l4.92,0l0.76-0.76l0-16.4l-0.76-0.76l-4.92,0l-0.76,0.76l0,16.4z"></path></g></svg>